# xmcd
#
# Track frame offsets:
#	150
#	18820
#	35535
#	60817
#	79087
#	96587
#	117557
#	139725
#	158197
#	179642
#	202060
#
# Disc length: 3033 seconds
#
# Revision: 0
# Processed by: cddbd v1.4PL0 Copyright (c) Steve Scherf et al.
# Submitted via: EasyCDDAExtractor 4.5.0.2
#
DISCID=950bd70b
DTITLE=Jim Weider and the Honky Tonk Gurus - Big Foot
DYEAR=2000
DGENRE=Blues
TTITLE0=Big Foot
TTITLE1=Little Miss Lover
TTITLE2=Deepest Cut
TTITLE3=New Orleans Boogie
TTITLE4=Love's LIke Rain
TTITLE5=Sliding Home
TTITLE6=Deep Feeling
TTITLE7=Groove Me
TTITLE8=I'm In Love
TTITLE9=Texas Shuffle
TTITLE10=Many Rivers to Cross
EXTD=
EXTT0=
EXTT1=
EXTT2=
EXTT3=
EXTT4=
EXTT5=
EXTT6=
EXTT7=
EXTT8=
EXTT9=
EXTT10=
PLAYORDER=
